<?xml version="1.0" encoding="UTF-8" standalone="no"?>
<!-- Created with Inkscape (http://www.inkscape.org/) -->

<svg
   xmlns:dc="http://purl.org/dc/elements/1.1/"
   xmlns:cc="http://creativecommons.org/ns#"
   xmlns:rdf="http://www.w3.org/1999/02/22-rdf-syntax-ns#"
   xmlns:svg="http://www.w3.org/2000/svg"
   xmlns="http://www.w3.org/2000/svg"
   xmlns:sodipodi="http://sodipodi.sourceforge.net/DTD/sodipodi-0.dtd"
   xmlns:inkscape="http://www.inkscape.org/namespaces/inkscape"
   width="270.93335mm"
   height="58.09594mm"
   viewBox="0 0 270.93335 58.095942"
   version="1.1"
   id="svg8"
   inkscape:version="0.92.4 (f8dce91, 2019-08-02)"
   sodipodi:docname="drawingTransparent.svg">
  <defs
     id="defs2">
    <clipPath
       clipPathUnits="userSpaceOnUse"
       id="clipPath4546">
      <rect
         style="opacity:0.68000034;fill:#800000;stroke-width:0.99999994"
         id="rect4548"
         width="252.03305"
         height="54.043171"
         x="23.636786"
         y="122.86248" />
    </clipPath>
  </defs>
  <sodipodi:namedview
     id="base"
     pagecolor="#ffffff"
     bordercolor="#666666"
     borderopacity="1.0"
     inkscape:pageopacity="0.0"
     inkscape:pageshadow="2"
     inkscape:zoom="1.979899"
     inkscape:cx="109.82247"
     inkscape:cy="5.3839955"
     inkscape:document-units="mm"
     inkscape:current-layer="layer1"
     showgrid="false"
     fit-margin-top="0"
     fit-margin-left="0"
     fit-margin-right="0"
     fit-margin-bottom="0"
     inkscape:window-width="1920"
     inkscape:window-height="1080"
     inkscape:window-x="1920"
     inkscape:window-y="27"
     inkscape:window-maximized="1" />
  <metadata
     id="metadata5">
    <rdf:RDF>
      <cc:Work
         rdf:about="">
        <dc:format>image/svg+xml</dc:format>
        <dc:type
           rdf:resource="http://purl.org/dc/dcmitype/StillImage" />
        <dc:title></dc:title>
      </cc:Work>
    </rdf:RDF>
  </metadata>
  <g
     inkscape:label="Layer 1"
     inkscape:groupmode="layer"
     id="layer1"
     style="display:inline"
     transform="translate(-21.750924,-81.225231)">
    <g
       style="overflow:inherit"
       id="g34"
       transform="matrix(1.0749913,0,0,1.0749913,-3.6584151,-50.850866)"
       clip-path="url(#clipPath4546)">
      <rect
         style="fill:none"
         xml:space="default"
         id="background"
         height="300"
         width="300"
         y="0"
         x="0" />
      <g
         exec="@Code.RemoveBasicShape(p);Code.DisableStrokeAlternateStyle(p);p.UseEmblem = false;"
         dynamic-beforeTextChange="true"
         xml:space="default"
         id="container">
        <path
           style="fill:#c84127"
           xml:space="default"
           id="text1"
           d="m 77.45438,164.2369 v -28.0544 c 0,-0.4604 0.19423,-0.8632 0.58267,-1.2085 v 0 c 0.38845,-0.3453 0.89918,-0.5179 1.5322,-0.5179 v 0 h 8.67529 c 2.96369,0 5.33752,0.7841 7.1215,2.3522 v 0 c 1.78397,1.5682 2.67596,4.0212 2.67596,7.3589 v 0 0.259 c 0,3.3665 -0.92796,5.8411 -2.78386,7.4236 v 0 c -1.85591,1.5826 -4.30888,2.3738 -7.35889,2.3738 v 0 h -4.83398 v 10.0133 c 0,0.5467 -0.28055,0.9783 -0.84164,1.2948 v 0 c -0.56109,0.3166 -1.21569,0.4748 -1.96381,0.4748 v 0 c -0.77689,0 -1.43868,-0.1582 -1.98539,-0.4748 v 0 c -0.54669,-0.3165 -0.82005,-0.7481 -0.82005,-1.2948 0,0 0,0 0,0 v 0 0 m 5.61089,-14.4156 h 4.83398 c 1.43869,0 2.55368,-0.4172 3.34495,-1.2517 v 0 c 0.79128,-0.8344 1.18692,-2.0717 1.18692,-3.7118 v 0 -0.5179 c 0,-1.6401 -0.39564,-2.8774 -1.18692,-3.7118 v 0 c -0.79127,-0.8345 -1.90626,-1.2517 -3.34495,-1.2517 v 0 h -4.83398 v 10.4449 m 16.23614,7.7257 v -3.5392 c 0,-2.3594 0.92079,-4.4095 2.76229,-6.1503 v 0 c 1.8415,-1.7408 4.0427,-2.6113 6.6036,-2.6113 v 0 c 2.5033,0 4.6901,0.8633 6.5604,2.5897 v 0 c 1.8703,1.7264 2.8054,3.7837 2.8054,6.1719 v 0 3.5392 c 0,2.3307 -0.9351,4.388 -2.8054,6.172 v 0 c -1.8703,1.784 -4.0571,2.6759 -6.5604,2.6759 v 0 c -2.5034,0 -4.6902,-0.8919 -6.5605,-2.6759 v 0 c -1.8702,-1.784 -2.80539,-3.8413 -2.80539,-6.172 0,0 0,0 0,0 v 0 0 m 5.56769,-0.0128 c 0,1.0278 0.3741,1.9414 1.1222,2.741 v 0 c 0.7481,0.7996 1.6401,1.1994 2.676,1.1994 v 0 c 1.007,0 1.8918,-0.3998 2.6543,-1.1994 v 0 c 0.7625,-0.7996 1.1438,-1.7132 1.1438,-2.741 v 0 -3.5129 c 0,-0.9706 -0.3813,-1.8558 -1.1438,-2.6553 v 0 c -0.7625,-0.7996 -1.6473,-1.1995 -2.6543,-1.1995 v 0 c -1.0359,0 -1.9279,0.3927 -2.676,1.1779 v 0 c -0.7481,0.7852 -1.1222,1.6775 -1.1222,2.6769 0,0 0,0 0,3.5129 v -3.5129 3.5129 m 14.8493,-9.9573 c 0,-0.633 0.4028,-1.1725 1.2085,-1.6185 v 0 c 0.8057,-0.446 1.6113,-0.669 2.417,-0.669 v 0 c 0.8344,0 1.3668,0.3021 1.5969,0.9064 v 0 l 4.3161,12.2576 3.237,-10.6607 c 0.2302,-0.7481 0.8632,-1.1222 1.8991,-1.1222 v 0 c 1.0359,0 1.6689,0.3741 1.8991,1.1222 v 0 l 3.1939,10.7039 4.3592,-12.3008 c 0.2302,-0.6043 0.7625,-0.9064 1.5969,-0.9064 v 0 c 0.7769,0 1.5682,0.2302 2.3738,0.6906 v 0 c 0.8057,0.4604 1.2085,1.0071 1.2085,1.6401 v 0 c 0,0.3165 -0.0575,0.5755 -0.1726,0.7769 v 0 l -6.6467,17.0916 c -0.259,0.6618 -0.9927,0.9927 -2.2012,0.9927 v 0 c -1.2661,0 -2.0286,-0.3309 -2.2875,-0.9927 v 0 l -3.3234,-9.409 -3.2802,9.3658 c -0.259,0.6906 -1.0502,1.0359 -2.3738,1.0359 v 0 c -1.1798,0 -1.8991,-0.3453 -2.1581,-1.0359 v 0 l -6.6467,-17.0484 c -0.1439,-0.2878 -0.2158,-0.5611 -0.2158,-0.8201 0,0 0,0 0,0 v 0 0 m 30.9838,9.9701 v -3.6686 c 0,-2.3595 0.9207,-4.388 2.7622,-6.0857 v 0 c 1.8416,-1.6976 4.0715,-2.5465 6.6899,-2.5465 v 0 c 2.4458,0 4.5391,0.7732 6.2799,2.3196 v 0 c 1.7408,1.5464 2.6112,3.4903 2.6112,5.8317 v 0 c 0,0.8547 -0.1079,1.5599 -0.3237,2.1156 v 0 c -0.2158,0.5557 -0.5467,0.9475 -0.9927,1.1754 v 0 c -0.446,0.228 -0.856,0.3705 -1.2301,0.4276 v 0 c -0.374,0.0571 -0.8632,0.0856 -1.4674,0.0856 v 0 h -8.7616 v 0.6474 c 0,1.2373 0.4604,2.2372 1.3811,2.9997 v 0 c 0.9208,0.7625 2.1436,1.1438 3.6687,1.1438 v 0 c 1.0934,0 2.1724,-0.2734 3.237,-0.8201 v 0 c 1.0647,-0.5467 1.7552,-0.82 2.0717,-0.82 v 0 c 0.6043,0 1.1078,0.2805 1.5106,0.8416 v 0 c 0.4029,0.5611 0.6043,1.1006 0.6043,1.6185 v 0 c 0,0.8057 -0.7265,1.6041 -2.1796,2.3954 v 0 c -1.4531,0.7913 -3.2586,1.1869 -5.4167,1.1869 v 0 c -3.0788,0 -5.5893,-0.8128 -7.5315,-2.4385 v 0 c -1.9422,-1.6257 -2.9133,-3.7622 -2.9133,-6.4094 0,0 0,0 0,0 v 0 0 m 5.5677,-3.6255 h 6.3014 c 0.4604,0 0.7841,-0.0739 0.9711,-0.2218 v 0 c 0.1871,-0.148 0.2806,-0.4368 0.2806,-0.8666 v 0 c 0,-0.9406 -0.3669,-1.7065 -1.1006,-2.2977 v 0 c -0.7337,-0.5912 -1.6329,-0.8868 -2.6975,-0.8868 v 0 c -1.0071,0 -1.8847,0.2889 -2.6329,0.8666 v 0 c -0.7481,0.5777 -1.1221,1.3369 -1.1221,2.2774 0,0 0,0 0,1.1289 v -1.1289 1.1289 m 16.094,10.3154 v -17.0053 c 0,-0.5179 0.2518,-0.9351 0.7553,-1.2516 v 0 c 0.5035,-0.3165 1.1581,-0.4748 1.9638,-0.4748 v 0 c 0.7194,0 1.3164,0.1597 1.7912,0.4792 v 0 c 0.4748,0.3194 0.7121,0.7405 0.7121,1.2634 v 0 1.7865 c 0.4604,-1.0161 1.1798,-1.9015 2.1581,-2.6561 v 0 c 0.9783,-0.7546 2.0285,-1.132 3.1507,-1.132 v 0 h 1.338 c 0.5179,0 0.9855,0.2468 1.4027,0.7402 v 0 c 0.4172,0.4934 0.6258,1.0595 0.6258,1.6984 v 0 c 0,0.6677 -0.2086,1.2482 -0.6258,1.7416 v 0 c -0.4172,0.4934 -0.8848,0.7401 -1.4027,0.7401 v 0 h -1.338 c -1.3236,0 -2.4818,0.5883 -3.4744,1.7649 v 0 c -0.9927,1.1766 -1.4891,2.7117 -1.4891,4.6054 v 0 7.7048 c 0,0.4307 -0.2877,0.8326 -0.8632,1.2055 v 0 c -0.5755,0.3729 -1.2373,0.5594 -1.9854,0.5594 v 0 c -0.7769,0 -1.4243,-0.1798 -1.9422,-0.5395 v 0 c -0.518,-0.3597 -0.7769,-0.7697 -0.7769,-1.2301 0,0 0,0 0,0 v 0 0 m 16.2264,-5.1408 v -20.6895 c 0,-0.4833 0.2877,-0.8885 0.8632,-1.2155 v 0 c 0.5755,-0.3271 1.2085,-0.4907 1.8991,-0.4907 v 0 c 0.7481,0 1.4027,0.1592 1.9637,0.4775 v 0 c 0.5611,0.3183 0.8417,0.7128 0.8417,1.1836 v 0 7.1437 h 5.0929 c 0.4316,0 0.7769,0.2186 1.0359,0.6558 v 0 c 0.2589,0.4373 0.3884,0.9524 0.3884,1.5454 v 0 c 0,0.593 -0.1295,1.1081 -0.3884,1.5454 v 0 c -0.259,0.4372 -0.6043,0.6558 -1.0359,0.6558 v 0 h -5.0929 v 9.0003 c 0,0.7944 0.1798,1.3561 0.5395,1.685 v 0 c 0.3597,0.3289 0.9855,0.4933 1.8775,0.4933 v 0 h 1.6832 c 0.7481,0 1.3308,0.2408 1.748,0.7223 v 0 c 0.4173,0.4815 0.6259,1.0533 0.6259,1.7156 v 0 c 0,0.6919 -0.2086,1.2786 -0.6259,1.7601 v 0 c -0.4172,0.4815 -0.9999,0.7223 -1.748,0.7223 v 0 h -1.6832 c -5.3232,0 -7.9847,-2.3035 -7.9847,-6.9104 0,0 0,0 0,0 v 0 0 m 14.0184,-1.5491 v -3.5392 c 0,-2.3594 0.9207,-4.4095 2.7623,-6.1503 v 0 c 1.8415,-1.7408 4.0427,-2.6113 6.6035,-2.6113 v 0 c 2.5034,0 4.6902,0.8633 6.5605,2.5897 v 0 c 1.8703,1.7264 2.8054,3.7837 2.8054,6.1719 v 0 3.5392 c 0,2.3307 -0.9351,4.388 -2.8054,6.172 v 0 c -1.8703,1.784 -4.0571,2.6759 -6.5605,2.6759 v 0 c -2.5033,0 -4.6901,-0.8919 -6.5604,-2.6759 v 0 c -1.8703,-1.784 -2.8054,-3.8413 -2.8054,-6.172 0,0 0,0 0,0 v 0 0 m 5.5677,-0.0128 c 0,1.0278 0.3741,1.9414 1.1222,2.741 v 0 c 0.7481,0.7996 1.6401,1.1994 2.6759,1.1994 v 0 c 1.0071,0 1.8919,-0.3998 2.6544,-1.1994 v 0 c 0.7625,-0.7996 1.1438,-1.7132 1.1438,-2.741 v 0 -3.5129 c 0,-0.9706 -0.3813,-1.8558 -1.1438,-2.6553 v 0 c -0.7625,-0.7996 -1.6473,-1.1995 -2.6544,-1.1995 v 0 c -1.0358,0 -1.9278,0.3927 -2.6759,1.1779 v 0 c -0.7481,0.7852 -1.1222,1.6775 -1.1222,2.6769 0,0 0,0 0,3.5129 v -3.5129 3.5129 m 15.9283,0.0128 v -3.5392 c 0,-2.3594 0.9208,-4.4095 2.7623,-6.1503 v 0 c 1.8415,-1.7408 4.0427,-2.6113 6.6036,-2.6113 v 0 c 2.5033,0 4.6901,0.8633 6.5604,2.5897 v 0 c 1.8703,1.7264 2.8054,3.7837 2.8054,6.1719 v 0 3.5392 c 0,2.3307 -0.9351,4.388 -2.8054,6.172 v 0 c -1.8703,1.784 -4.0571,2.6759 -6.5604,2.6759 v 0 c -2.5034,0 -4.6902,-0.8919 -6.5604,-2.6759 v 0 c -1.8704,-1.784 -2.8055,-3.8413 -2.8055,-6.172 0,0 0,0 0,0 v 0 0 m 5.5677,-0.0128 c 0,1.0278 0.3741,1.9414 1.1222,2.741 v 0 c 0.7481,0.7996 1.6401,1.1994 2.676,1.1994 v 0 c 1.007,0 1.8918,-0.3998 2.6543,-1.1994 v 0 c 0.7625,-0.7996 1.1438,-1.7132 1.1438,-2.741 v 0 -3.5129 c 0,-0.9706 -0.3813,-1.8558 -1.1438,-2.6553 v 0 c -0.7625,-0.7996 -1.6473,-1.1995 -2.6543,-1.1995 v 0 c -1.0359,0 -1.9279,0.3927 -2.676,1.1779 v 0 c -0.7481,0.7852 -1.1222,1.6775 -1.1222,2.6769 0,0 0,0 0,3.5129 v -3.5129 3.5129 m 17.0937,6.7027 v -28.9608 c 0,-0.5179 0.2517,-0.9351 0.7553,-1.2516 v 0 c 0.5035,-0.3165 1.1725,-0.4748 2.0069,-0.4748 v 0 c 0.7769,0 1.4387,0.1583 1.9854,0.4748 v 0 c 0.5467,0.3165 0.8201,0.7337 0.8201,1.2516 v 0 28.9608 c 0,0.4316 -0.2806,0.8345 -0.8417,1.2085 v 0 c -0.5611,0.3741 -1.2157,0.5611 -1.9638,0.5611 v 0 c -0.7769,0 -1.4315,-0.1798 -1.9638,-0.5395 v 0 c -0.5323,-0.3597 -0.7984,-0.7697 -0.7984,-1.2301 0,0 0,0 0,0 v 0 0 m 8.9804,-1.5538 c 0,-0.5179 0.1893,-1.0574 0.5678,-1.6185 v 0 c 0.3786,-0.5611 0.8154,-0.8416 1.3103,-0.8416 v 0 c 0.3202,0 0.7205,0.1442 1.2011,0.4326 v 0 c 0.4806,0.2884 1.114,0.5833 1.9001,0.8848 v 0 c 0.7861,0.3014 1.7177,0.4522 2.795,0.4522 v 0 c 2.1257,0 3.1885,-0.6018 3.1885,-1.8054 v 0 c 0,-0.6717 -0.3525,-1.2035 -1.0574,-1.5956 v 0 c -0.705,-0.392 -1.5538,-0.7139 -2.5465,-0.9657 v 0 c -0.9927,-0.2517 -1.9926,-0.5526 -2.9997,-0.9026 v 0 c -1.0071,-0.3501 -1.8631,-0.9379 -2.5681,-1.7636 v 0 c -0.7049,-0.8256 -1.0574,-1.8823 -1.0574,-3.1699 v 0 c 0,-1.7858 0.6186,-3.3228 1.8559,-4.6111 v 0 c 1.2373,-1.2883 3.1939,-1.9325 5.8699,-1.9325 v 0 c 1.7839,0 3.3737,0.2734 4.7692,0.8201 v 0 c 1.3955,0.5467 2.0933,1.2085 2.0933,1.9854 v 0 c 0,0.4891 -0.1942,1.0574 -0.5827,1.7048 v 0 c -0.3884,0.6474 -0.8704,0.9711 -1.4459,0.9711 v 0 c -0.2301,0 -0.856,-0.1798 -1.8775,-0.5395 v 0 c -1.0214,-0.3596 -1.9781,-0.5395 -2.8701,-0.5395 v 0 c -0.9783,0 -1.7264,0.1959 -2.2444,0.5878 v 0 c -0.5179,0.3918 -0.7769,0.8256 -0.7769,1.3015 v 0 c 0,0.4759 0.259,0.8678 0.7769,1.1758 v 0 c 0.518,0.308 1.1582,0.5459 1.9207,0.7138 v 0 c 0.7625,0.168 1.5808,0.3988 2.4551,0.6926 v 0 c 0.8742,0.2938 1.685,0.6368 2.4325,1.0288 v 0 c 0.7474,0.3921 1.3749,1.0009 1.8825,1.8266 v 0 c 0.5076,0.8256 0.7614,1.8263 0.7614,3.002 v 0 c 0,1.9926 -0.6978,3.5603 -2.0933,4.7031 v 0 c -1.3955,1.1429 -3.3449,1.7143 -5.8483,1.7143 v 0 c -2.158,0 -3.9995,-0.374 -5.5245,-1.1221 v 0 c -1.525,-0.7482 -2.2875,-1.6114 -2.2875,-2.5897 0,0 0,0 0,0 v 0 0"
           inkscape:connector-curvature="0" />
        <text
           style="font-size:10px;font-family:serif;text-anchor:end;fill:#000000"
           id="text2"
           font-size="10px"
           y="0"
           x="0"
           xml:space="default" />
        <g
           style="fill:#3d2117"
           considerStrokeBounds="true"
           scaleStrokeWidth="true"
           xml:space="default"
           id="icon">
          <g
             xml:space="default"
             id="g820">
            <path
               connector-curvature="0"
               xml:space="default"
               id="path817"
               d="m 33.91884,166.2355 c -0.06963,-0.1815 0.13233,-0.6331 0.52296,-1.1694 v 0 c 0.88417,-1.2139 1.41516,-2.3202 1.41516,-2.9484 v 0 c 0,-1.5561 -2.6682,-2.8305 -3.89904,-1.8623 v 0 c -0.25729,0.2024 -0.76002,0.8905 -1.11718,1.5291 v 0 c -0.73191,1.3088 -1.08485,1.6716 -1.47895,1.5204 v 0 c -0.90419,-0.347 -1.24427,-3.7232 -0.53101,-5.2718 v 0 c 0.50616,-1.099 1.58959,-2.2884 2.51421,-2.7601 v 0 c 0.65677,-0.335 0.9375,-0.3617 2.66877,-0.2529 v 0 l 1.9348,0.1215 7.03304,-7.0425 7.03304,-7.0425 -0.10932,-0.7976 c -0.06013,-0.4386 -0.1644,-1.1426 -0.23172,-1.5644 v 0 c -0.19534,-1.2241 0.03918,-1.9587 0.94802,-2.9695 v 0 c 0.98246,-1.0927 2.67243,-1.9903 4.05603,-2.1541 v 0 c 1.27623,-0.1512 1.40712,0.1724 0.54726,1.353 v 0 c -0.88417,1.2139 -1.41517,2.3202 -1.41517,2.9484 v 0 c 0,1.4811 2.58137,2.8031 3.80285,1.9475 v 0 c 0.22205,-0.1555 0.73063,-0.8425 1.13017,-1.5266 v 0 c 1.23035,-2.1066 1.6828,-2.1622 2.26967,-0.2785 v 0 c 0.60814,1.952 0.13862,4.0063 -1.27412,5.5745 v 0 c -1.12749,1.2516 -1.95093,1.5238 -4.16852,1.3781 v 0 l -1.85164,-0.1216 -7.03304,7.0439 -7.03304,7.0438 0.12622,0.8891 c 0.34579,2.4357 0.34186,2.7297 -0.0466,3.4912 v 0 c -0.77611,1.5212 -2.832,2.8243 -4.90429,3.1083 v 0 c -0.63031,0.0864 -0.81863,0.0477 -0.90855,-0.1866 v 0 h -10e-6 v 0 m 22.132,-2.5498 c -1.23077,-1.2342 -2.05791,-2.2092 -2.05791,-2.4256 v 0 c 0,-0.2261 -1.37594,-1.7391 -3.66687,-4.032 v 0 l -3.66687,-3.6702 0.8304,-0.8149 0.83039,-0.815 3.66394,3.6591 c 2.81537,2.8116 3.7543,3.6448 4.05405,3.5973 v 0 c 0.29241,-0.0464 0.91094,0.4575 2.46997,2.0121 v 0 c 1.14393,1.1407 2.07988,2.2018 2.07988,2.358 v 0 c 0,0.3608 -1.84424,2.195 -2.20704,2.195 v 0 c -0.14961,0 -1.19808,-0.9287 -2.32994,-2.0638 v 0 0 0 M 34.54691,144.5451 c -2.78467,-2.796 -5.15416,-5.2636 -5.26553,-5.4837 v 0 C 29.17,138.8413 29.07887,138.3929 29.07887,138.065 v 0 c 0,-0.5057 0.24529,-0.8416 1.61408,-2.2104 v 0 c 1.74289,-1.7428 2.20288,-1.9315 3.29539,-1.3513 v 0 c 0.27208,0.1444 2.76081,2.5348 5.53051,5.3118 v 0 l 5.03582,5.0492 -2.3769,2.3822 c -1.30729,1.3102 -2.41986,2.3822 -2.47237,2.3822 v 0 c -0.0525,0 -2.37382,-2.2876 -5.15849,-5.0836 v 0 0 0"
               inkscape:connector-curvature="0"
               style="stroke-width:1.33333302" />
          </g>
        </g>
        <path
           style="fill:#c84127;stroke-width:0;stroke-linecap:square"
           xml:space="default"
           id="l1"
           d="m 67.22788,128.1005 h 3.75929 v 43.799 h -3.75929 v -43.799"
           inkscape:connector-curvature="0" />
      </g>
    </g>
  </g>
</svg>
